<svg width="201" height="200" viewBox="0 0 201 200" fill="none" xmlns="http://www.w3.org/2000/svg">
<path fill-rule="evenodd" clip-rule="evenodd" d="M173.327 0C188.39 0 200.6 12.2105 200.6 27.2727V172.727C200.6 187.79 188.39 200 173.327 200H27.8723C12.8101 200 0.599609 187.79 0.599609 172.727V27.2727C0.599609 12.2105 12.8101 0 27.8723 0H173.327ZM173.327 14.1818C178.348 14.1818 186.418 22.252 186.418 27.2727V172.727C186.418 177.748 178.348 185.818 173.327 185.818H115.872V116.181H134.747C138.66 116.181 142.133 115.677 143.371 111.965L147.399 99.8827C148.871 95.4673 145.584 92.9082 140.931 92.9082H115.872V72.7265C115.872 68.1811 120.418 65.6356 124.963 65.6356H143.145C148.166 65.6356 152.236 61.5655 152.236 56.5447V50.3085C152.236 47.3719 150.361 44.7391 147.521 43.9897C135.604 40.845 124.963 40.845 124.963 40.845C102.236 40.845 92.5996 54.5447 92.5996 68.1811V92.9082H74.4178C69.3971 92.9082 65.3269 94.9782 65.3269 99.9991V109.09C65.3269 114.111 69.397 116.181 74.4178 116.181H92.5996V185.818H27.8723C22.8516 185.818 14.7814 177.748 14.7814 172.727V27.2727C14.7814 22.252 22.8516 14.1818 27.8723 14.1818H173.327Z" fill="white"/>
</svg>
