<svg width="201" height="200" viewBox="0 0 201 200" fill="none" xmlns="http://www.w3.org/2000/svg">
<path fill-rule="evenodd" clip-rule="evenodd" d="M0.599609 40C0.599609 17.9086 18.5082 0 40.5996 0H160.6C182.691 0 200.6 17.9086 200.6 40V160C200.6 182.091 182.691 200 160.6 200H40.5996C18.5082 200 0.599609 182.091 0.599609 160V40ZM40.5996 20C29.5539 20 20.5996 28.9543 20.5996 40V160C20.5996 171.046 29.5539 180 40.5996 180H160.6C171.646 180 180.6 171.046 180.6 160V40C180.6 28.9543 171.646 20 160.6 20H40.5996ZM100.6 70C84.0306 70 70.5996 83.431 70.5996 100C70.5996 116.569 84.0306 130 100.6 130C117.169 130 130.6 116.569 130.6 100C130.6 83.431 117.169 70 100.6 70ZM50.5996 100C50.5996 72.3858 72.9854 50 100.6 50C128.214 50 150.6 72.3858 150.6 100C150.6 127.614 128.214 150 100.6 150C72.9854 150 50.5996 127.614 50.5996 100ZM155.6 60C163.884 60 170.6 53.2843 170.6 45C170.6 36.7157 163.884 30 155.6 30C147.316 30 140.6 36.7157 140.6 45C140.6 53.2843 147.316 60 155.6 60Z" fill="white"/>
</svg>
