<svg width="286" height="200" viewBox="0 0 286 200" fill="none" xmlns="http://www.w3.org/2000/svg">
<path d="M223.957 193.964C223.884 193.961 223.811 193.96 223.739 193.96H61.8609C61.7881 193.96 61.7153 193.961 61.6426 193.964C32.0795 195.04 7.2152 172.021 6 142.477V57.5231C7.21521 27.9799 32.0796 4.96009 61.6426 6.03633C61.7153 6.03897 61.7881 6.0403 61.8609 6.0403H223.739C223.811 6.0403 223.884 6.03897 223.957 6.03633C253.52 4.96009 278.384 27.9798 279.6 57.523V142.477C278.384 172.021 253.52 195.04 223.957 193.964Z" stroke="white" strokeWidth="12" strokeLinecap="round" strokeLinejoin="round"/>
<path d="M177.541 95.2949C177.654 95.3717 177.769 95.4446 177.887 95.5135C178.97 96.146 179.635 97.3052 179.635 98.5575C179.635 99.8122 178.97 100.97 177.889 101.6C177.697 101.712 177.512 101.835 177.333 101.968L132.313 135.437C129.869 137.045 126.631 137.238 123.935 136.208C121.156 135.147 120.24 133.418 120.24 132.115V67.8561C120.24 66.5895 121.142 64.8611 123.938 63.7946C126.677 62.7498 129.961 62.9635 132.402 64.6221C132.402 64.6221 132.402 64.6222 132.402 64.6222L177.541 95.2949Z" stroke="white" strokeWidth="12" strokeLinecap="round" strokeLinejoin="round"/>
</svg>
