<svg width="241" height="200" viewBox="0 0 241 200" fill="none" xmlns="http://www.w3.org/2000/svg">
<path fill-rule="evenodd" clip-rule="evenodd" d="M109.387 54.8433C109.387 24.5532 133.935 0 164.211 0C181.985 0 196.177 8.40731 205.688 20.608C215.902 18.5183 225.507 14.7389 234.197 9.58283C230.771 20.2947 223.52 29.3008 214.068 35.0001L214.092 35.0555C223.363 33.9301 232.183 31.4649 240.396 27.8255L240.376 27.8551C234.467 36.7044 227.04 44.5166 218.5 50.8813C218.96 53.9741 219.193 57.0874 219.193 60.1826C219.193 124.82 169.951 200 79.3655 200C51.623 200 25.7836 191.871 4.03391 177.917C-0.0414441 175.303 -1.22545 169.879 1.38934 165.804C1.62027 165.443 1.8733 165.106 2.14526 164.791C3.69672 162.224 6.65235 160.658 9.82646 161.031C25.8752 162.923 41.9197 160.966 56.0615 154.789C42.035 148.603 31.1466 136.615 26.4254 121.886C25.5758 119.236 26.1854 116.334 28.0293 114.249C28.0933 114.177 28.1583 114.106 28.2245 114.037C16.9895 104.149 9.90239 89.6633 9.90239 73.5201V72.9267C9.90239 70.1308 11.382 67.5436 13.7919 66.1259C14.5838 65.66 15.437 65.3433 16.3129 65.1762C12.4582 57.7409 10.2782 49.2945 10.2782 40.3473C10.2782 32.1423 10.3251 21.8016 16.1024 12.4888C17.3975 10.4012 19.5087 9.12815 21.7675 8.82656C25.09 7.78185 28.8597 8.78693 31.1952 11.6509C50.3307 35.1163 77.9529 51.3283 109.392 55.6029L109.387 54.8433ZM79.3655 182.465C65.5596 182.465 52.3024 180.167 39.9347 175.937C54.9731 173.333 69.4032 167.408 81.8371 157.665C84.4661 155.604 85.5131 152.111 84.4512 148.945C83.3893 145.779 80.4488 143.623 77.1093 143.564C64.7848 143.347 53.8684 137.271 47.0441 128C50.3819 127.731 53.6433 127.158 56.8025 126.303C60.3371 125.348 62.7499 122.086 62.6291 118.426C62.5082 114.766 59.8858 111.671 56.2957 110.95C42.6431 108.209 31.6295 98.1774 27.4713 85.0983C30.9933 85.9489 34.6488 86.4548 38.3977 86.5775C41.9188 86.6927 45.0896 84.4599 46.1678 81.1059C47.2458 77.7519 45.9698 74.0896 43.041 72.1315C32.7938 65.2809 26.0593 53.5869 26.0593 40.3473C26.0593 37.4111 26.1007 34.7905 26.2765 32.4148C50.0815 56.6465 82.6534 72.2555 118.9 74.0803C121.642 74.2185 124.29 73.0642 126.055 70.9618C127.821 68.8592 128.499 66.0512 127.889 63.3747C127.258 60.61 126.922 57.7637 126.922 54.8433C126.922 34.2324 143.624 17.5346 164.211 17.5346C185.854 17.5346 201.658 37.5856 201.658 60.1826C201.658 117.28 158.253 182.465 79.3655 182.465Z" fill="white"/>
</svg>
