<svg width="200" height="200" viewBox="0 0 200 200" fill="none" xmlns="http://www.w3.org/2000/svg">
<path d="M184.375 0H15.625C6.99219 0 0 6.99219 0 15.625V184.375C0 193.008 6.99219 200 15.625 200H184.375C193.008 200 200 193.008 200 184.375V15.625C200 6.99219 193.008 0 184.375 0ZM188.281 184.375C188.281 186.523 186.523 188.281 184.375 188.281H15.625C13.4766 188.281 11.7188 186.523 11.7188 184.375V15.625C11.7188 13.4766 13.4766 11.7188 15.625 11.7188H184.375C186.523 11.7188 188.281 13.4766 188.281 15.625V184.375Z" fill="white"/>
<path d="M72.0312 79.4531H52.5391V141.836H72.0312V79.4531Z" fill="white"/>
<path d="M125.273 78.8672C114.102 78.8672 107.109 84.9609 105.82 89.2578V79.4531H83.9063C84.1797 84.6484 83.9063 141.836 83.9063 141.836H105.82V108.125C105.82 106.211 105.742 104.336 106.289 103.008C107.773 99.2578 111.016 95.3516 116.836 95.3516C124.453 95.3516 127.891 101.133 127.891 109.57V141.836H150V107.148C150 87.8516 139.141 78.8672 125.273 78.8672Z" fill="white"/>
<path d="M61.875 50C54.6875 50 49.9609 54.6484 49.9609 60.8203C49.9609 66.875 54.5312 71.6406 61.6016 71.6406H61.7578C69.1016 71.6406 73.6719 66.8359 73.6328 60.8203C73.4766 54.6484 69.0625 50 61.875 50Z" fill="white"/>
</svg>
